<?xml version="1.0" encoding="UTF-8" standalone="no"?>
<svg
   xmlns:dc="http://purl.org/dc/elements/1.1/"
   xmlns:cc="http://creativecommons.org/ns#"
   xmlns:rdf="http://www.w3.org/1999/02/22-rdf-syntax-ns#"
   xmlns:svg="http://www.w3.org/2000/svg"
   xmlns="http://www.w3.org/2000/svg"
   xmlns:sodipodi="http://sodipodi.sourceforge.net/DTD/sodipodi-0.dtd"
   xmlns:inkscape="http://www.inkscape.org/namespaces/inkscape"
   enable-background="new -0.709 -1.23 141.732 141.732"
   height="141.732px"
   id="Livello_1"
   version="1.1"
   viewBox="-0.709 -1.23 141.732 141.732"
   width="141.732px"
   x="0px"
   xml:space="preserve"
   y="0px"
   inkscape:version="0.48.3.1 r9886"
   sodipodi:docname="ic_freetime.svg"><metadata
     id="metadata11"><rdf:RDF><cc:Work
         rdf:about=""><dc:format>image/svg+xml</dc:format><dc:type
           rdf:resource="http://purl.org/dc/dcmitype/StillImage" /></cc:Work></rdf:RDF></metadata><defs
     id="defs9" /><sodipodi:namedview
     pagecolor="#ffffff"
     bordercolor="#666666"
     borderopacity="1"
     objecttolerance="10"
     gridtolerance="10"
     guidetolerance="10"
     inkscape:pageopacity="0"
     inkscape:pageshadow="2"
     inkscape:window-width="640"
     inkscape:window-height="480"
     id="namedview7"
     showgrid="false"
     inkscape:zoom="1.6651145"
     inkscape:cx="70.865997"
     inkscape:cy="65.460964"
     inkscape:window-x="49"
     inkscape:window-y="0"
     inkscape:window-maximized="0"
     inkscape:current-layer="Livello_1" /><g
     id="Livello_76"
     style="fill:#eeeeec"><path
       d="M0,69.023h0.026v-0.025L0,69.023z M136.448,66.373c0-0.77-0.33-1.461-0.854-1.942L72.026,0.836   C71.555,0.336,70.894,0.02,70.157,0v0.095c-0.737,0.018-1.398,0.335-1.869,0.835L4.72,64.521c-0.523,0.479-0.854,1.174-0.854,1.94   c0,1.467,1.188,2.65,2.65,2.65h15.067v12.529v57.629h35.078V98.799c0-1.487,1.203-2.696,2.688-2.696h21.571   c1.49,0,2.697,1.209,2.697,2.696v40.478h35.105v-57.63V69.043v-0.02h15.067C135.262,69.023,136.448,67.838,136.448,66.373    M140.315,69.115l-0.027-0.025v0.025H140.315z"
       id="path4"
       style="fill:#eeeeec" /></g><g
     id="Livello_1_1_" /></svg>